# xmcd
#
# Track frame offsets:
#  150
#  13671
#  29881
#  42414
#  57406
#  69152
#  83453
#  95703
#  111610
#  125979
#  139441
#
# Disc length: 2153 seconds
#
# Revision: 0
# Processed by: cddbd v1.5.2PL0 Copyright (c) Steve Scherf et al.
# Submitted via: Collectorz.com_Music_Collector 6.9
#
DISCID=a808670b
DTITLE=Tirk Wilder - I'm Letting Go
DYEAR=2000
DGENRE=
TTITLE0=I'm Letting Go
TTITLE1=Darker Shade of Blue
TTITLE2=He Lost His Marbles
TTITLE3=Forever Alive
TTITLE4=Mississippi Delta Queen
TTITLE5=As If It Matters
TTITLE6=Make No Mistake
TTITLE7=Cowboys and Outlaws
TTITLE8=The One
TTITLE9=The Eyes of The Ranger
TTITLE10=Zihuatanejo
EXTD=
EXTT0=
EXTT1=
EXTT2=
EXTT3=
EXTT4=
EXTT5=
EXTT6=
EXTT7=
EXTT8=
EXTT9=
EXTT10=
PLAYORDER=
